<svg xmlns="http://www.w3.org/2000/svg" width="260" height="472.569" viewBox="0 0 260 472.569"><path d="M27,43.3A41.209,41.209,0,0,1,68.115,2H245.885A41.209,41.209,0,0,1,287,43.3V433.268a41.209,41.209,0,0,1-41.115,41.3H68.115A41.209,41.209,0,0,1,27,433.268Zm8.2-.017A30.219,30.219,0,0,1,65.35,13h35.659a24.725,24.725,0,0,0,24.669,24.781h62.645A24.725,24.725,0,0,0,212.992,13H248.65A30.219,30.219,0,0,1,278.8,43.284V436.056a30.219,30.219,0,0,1-30.151,30.288H65.35A30.219,30.219,0,0,1,35.2,436.056Z" transform="translate(-27 -2)" fill="#e5e5e5" fill-rule="evenodd"/><g transform="translate(121.204 8.878)"><g transform="translate(0 0)"><g style="isolation:isolate"><path d="M8.176,9.133a.635.635,0,0,1-.325-.082L.131,4.3A.23.23,0,0,1,0,4.107a.225.225,0,0,1,.147-.181L7.83.071A.8.8,0,0,1,8.173,0a.754.754,0,0,1,.34.071l7.652,3.869a.224.224,0,0,1,.15.18.239.239,0,0,1-.134.2L8.5,9.051A.608.608,0,0,1,8.176,9.133ZM5.089,4.554h0l2.185,1.3-.809.927L8.2,7.869l3.821-5.016-1.611-.84-8.4,2.015,1.5.927,1.583-.4ZM8.1,4.9h0l-1.324-.78,2.669-.723L8.107,4.9Z" transform="translate(0.675)" fill="#bebebe"/><path d="M8.161,14.341a.274.274,0,0,1-.15-.052L.322,9.551A.73.73,0,0,1,0,8.966L.025.235C.025.092.091,0,.2,0A.282.282,0,0,1,.35.052L8.011,4.827a.765.765,0,0,1,.322.584v8.7C8.332,14.249,8.264,14.341,8.161,14.341ZM3.828,3.4h0L.912,6.1V7.28l3.7,2.292v1.511l1.748,1.088v-1.54l.9.584V9.828l-.9-.569V5.009L6.344,4.98,3.828,3.4Zm.787,4.776,0,0L2.772,7.024,4.608,5.316l.006,2.857Z" transform="translate(0 4.93)" fill="#bebebe"/><path d="M.178,14.338c-.109,0-.178-.091-.178-.231V5.433a.787.787,0,0,1,.328-.591L8,.052A.281.281,0,0,1,8.151,0c.1,0,.172.089.172.228V9a.758.758,0,0,1-.328.584l-7.667,4.7A.286.286,0,0,1,.178,14.338ZM5.847,3.174a1.79,1.79,0,0,0-.475.069A5.763,5.763,0,0,0,3.009,4.761,6.988,6.988,0,0,0,1.5,7.039a6.285,6.285,0,0,0-.425,1.628,4.885,4.885,0,0,0,.075,1.606,1.574,1.574,0,0,0,1.42,1.183h.044a3.428,3.428,0,0,0,1.829-.745,6.973,6.973,0,0,0,1.729-1.7A6.144,6.144,0,0,0,7.186,6.733a10.87,10.87,0,0,0,.159-1.665L4.183,7.025v1.27l1.333-.774c.006,0,0,.01,0,.02A2.564,2.564,0,0,1,3.565,9.748a.439.439,0,0,1-.062,0c-.181,0-.787-.081-.9-1.128a3.972,3.972,0,0,1,.656-2.417c.075-.116.759-1.126,1.586-1.154h.019a.764.764,0,0,1,.646.461l1.5-1.606A1.282,1.282,0,0,0,5.847,3.174Z" transform="translate(9.27 4.931)" fill="#bebebe"/></g></g></g><path d="M-7.374-14.471,3.143-3.953a.868.868,0,0,0,.419.234,1.094,1.094,0,0,0,.492,0,.78.78,0,0,0,.424-.249.868.868,0,0,0,.249-.419.972.972,0,0,0,0-.492A.9.9,0,0,0,4.488-5.3L-6.029-15.816a.969.969,0,0,0-.429-.239.99.99,0,0,0-.487,0,.861.861,0,0,0-.429.253.836.836,0,0,0-.244.424.989.989,0,0,0,0,.487A.97.97,0,0,0-7.374-14.471Zm0,9.172a.9.9,0,0,0-.239.419,1.009,1.009,0,0,0,0,.492.836.836,0,0,0,.244.424.829.829,0,0,0,.429.249,1.074,1.074,0,0,0,.487,0,.929.929,0,0,0,.429-.234L4.488-14.471a.97.97,0,0,0,.239-.424.953.953,0,0,0,0-.487.868.868,0,0,0-.249-.424.808.808,0,0,0-.424-.253,1.009,1.009,0,0,0-.492,0,.9.9,0,0,0-.419.239Z" transform="translate(233.565 72.565)" fill="#fff"/><g transform="translate(-745 -2125.516)"><rect width="64.206" height="20.395" rx="10" transform="translate(818.61 2384.885)" fill="#e5e5e5"/><rect width="212" height="105" rx="10" transform="translate(769 2425.099)" fill="#e5e5e5"/><rect width="148" height="14" rx="7" transform="translate(769 2540.099)" fill="#e5e5e5"/><rect width="97" height="14" rx="7" transform="translate(769 2559.099)" fill="#e5e5e5"/><ellipse cx="19.916" cy="19.917" rx="19.916" ry="19.917" transform="translate(769 2375.266)" fill="#e5e5e5"/></g><g transform="translate(-745 -2333.348)"><rect width="212" height="105" rx="10" transform="translate(769 2425.349)" fill="#fea528"/><rect width="148" height="14" rx="7" transform="translate(769 2540.099)" fill="#e5e5e5"/><rect width="97" height="14" rx="7" transform="translate(769 2559.099)" fill="#e5e5e5"/><ellipse cx="19.916" cy="19.917" rx="19.916" ry="19.917" transform="translate(769 2375.266)" fill="#fea528"/><g transform="translate(0 -7)"><rect width="64.206" height="20.395" rx="10" transform="translate(819 2384.885)" fill="#fea528"/><text transform="translate(824 2417.349)" fill="#d9aa4e" font-size="10" font-family="Roboto-Regular, Roboto"><tspan x="0" y="0">Sponsored</tspan></text></g></g></svg>